<svg  width="150" height="43" viewBox="0 0 192 43" fill="none" xmlns="http://www.w3.org/2000/svg">
<path d="M129.536 42.7244H118.629C114.909 42.7172 111.343 41.2361 108.712 38.6054C106.082 35.9748 104.6 32.4089 104.593 28.6886V14.8112C104.6 11.0909 106.082 7.52499 108.712 4.89432C111.343 2.26364 114.909 0.78257 118.629 0.775391H140.566V6.67949H118.629C116.468 6.67949 114.395 7.53813 112.866 9.06652C111.338 10.5949 110.479 12.6678 110.479 14.8293V18.2704H134.748C139.606 18.2704 143.568 21.8925 143.568 26.3568V28.6976C143.558 32.4156 142.076 35.9785 139.447 38.6071C136.818 41.2356 133.254 42.716 129.536 42.7244ZM110.497 24.1609V28.6886C110.497 30.85 111.356 32.923 112.884 34.4513C114.413 35.9797 116.486 36.8384 118.647 36.8384H129.554C131.716 36.8384 133.789 35.9797 135.317 34.4513C136.846 32.923 137.704 30.85 137.704 28.6886V26.4655C137.704 25.0619 136.169 24.1699 134.802 24.1699L110.497 24.1609Z" fill="white"/>
<path d="M97.4718 21.6881C99.3094 20.0932 100.615 17.9745 101.215 15.6162C101.814 13.2579 101.678 10.7727 100.824 8.49397C99.9711 6.21526 98.4414 4.25195 96.4404 2.86737C94.4395 1.48278 92.0631 0.743116 89.6298 0.747579H61.4993C64.0067 2.31381 66.2134 4.31648 68.0147 6.66073H89.6298C91.2305 6.65653 92.7673 7.28837 93.9021 8.41725C95.037 9.54614 95.6769 11.0796 95.6811 12.6803C95.6853 14.281 95.0534 15.8178 93.9246 16.9526C92.7957 18.0874 91.2622 18.7273 89.6615 18.7315H77.4911V24.6537H89.6615C91.2622 24.6579 92.7957 25.2978 93.9246 26.4327C95.0534 27.5675 95.6853 29.1043 95.6811 30.705C95.6769 32.3057 95.037 33.8391 93.9021 34.968C92.7673 36.0969 91.2305 36.7287 89.6298 36.7245H67.9332C66.1035 39.0786 63.8642 41.0832 61.3228 42.6422H89.6298C92.0631 42.6467 94.4395 41.907 96.4404 40.5224C98.4414 39.1378 99.9711 37.1745 100.824 34.8958C101.678 32.6171 101.814 30.1319 101.215 27.7736C100.615 25.4153 99.3094 23.2966 97.4718 21.7017V21.6881Z" fill="white"/>
<path d="M48.4776 0.679688H32.2051C34.7167 2.23018 36.9322 4.21564 38.7476 6.54304H48.4776C50.4798 6.50834 52.4689 6.87274 54.3288 7.61498C56.1888 8.35721 57.8822 9.46242 59.3105 10.8661C60.7387 12.2698 61.8731 13.9439 62.6474 15.7907C63.4218 17.6374 63.8206 19.6199 63.8206 21.6225C63.8206 23.625 63.4218 25.6075 62.6474 27.4543C61.8731 29.3011 60.7387 30.9752 59.3105 32.3788C57.8822 33.7825 56.1888 34.8878 54.3288 35.63C52.4689 36.3722 50.4798 36.7366 48.4776 36.7019H38.7476C36.94 39.0396 34.727 41.0332 32.2141 42.5879H48.4776C51.2287 42.5879 53.9529 42.046 56.4946 40.9932C59.0363 39.9404 61.3458 38.3973 63.2912 36.4519C65.2365 34.5066 66.7796 32.1971 67.8325 29.6554C68.8853 27.1137 69.4272 24.3895 69.4272 21.6383C69.4272 18.8872 68.8853 16.163 67.8325 13.6213C66.7796 11.0795 65.2365 8.77008 63.2912 6.82473C61.3458 4.87938 59.0363 3.33625 56.4946 2.28344C53.9529 1.23062 51.2287 0.688743 48.4776 0.688743V0.679688Z" fill="white"/>
<path d="M19.2922 42.5789H1.00941L4.70852 36.6929H19.2922C21.2944 36.7276 23.2835 36.3632 25.1435 35.6209C27.0034 34.8787 28.6968 33.7735 30.1251 32.3698C31.5533 30.9661 32.6877 29.292 33.462 27.4452C34.2364 25.5985 34.6352 23.616 34.6352 21.6134C34.6352 19.6109 34.2364 17.6284 33.462 15.7816C32.6877 13.9348 31.5533 12.2608 30.1251 10.8571C28.6968 9.45336 27.0034 8.34816 25.1435 7.60592C23.2835 6.86368 21.2944 6.49928 19.2922 6.53398H3.85732L0.158203 0.679688H19.2922C24.8484 0.679688 30.177 2.88687 34.1058 6.81568C38.0346 10.7445 40.2418 16.0731 40.2418 21.6293C40.2418 27.1854 38.0346 32.5141 34.1058 36.4429C30.177 40.3717 24.8484 42.5789 19.2922 42.5789Z" fill="white"/>
<path d="M184.304 11.5371L188.071 18.0615L191.842 24.5949L184.304 19.9812L176.761 24.5949L180.532 18.0615L184.304 11.5371Z" fill="#09212D"/>
<path d="M186.585 16.5397L180.813 17.9387C181.107 19.0976 181.259 20.2882 181.265 21.4839C181.272 25.1314 179.945 28.6554 177.533 31.3918C175.122 34.1283 171.792 35.888 168.173 36.3393C164.554 36.7907 160.894 35.9025 157.884 33.8422C154.874 31.7819 152.722 28.6917 151.833 25.1543C150.944 21.6168 151.38 17.8763 153.058 14.6379C154.737 11.3995 157.542 8.88684 160.944 7.57357C164.347 6.26029 168.113 6.2371 171.532 7.50838C174.95 8.77965 177.786 11.2576 179.504 14.4751L182.846 8.80641C179.838 4.90856 175.544 2.20502 170.729 1.17746C165.915 0.149896 160.891 0.865049 156.555 3.19551C152.218 5.52596 148.849 9.32036 147.049 13.9027C145.249 18.485 145.134 23.5576 146.725 28.2168C148.315 32.876 151.509 36.8191 155.735 39.3437C159.962 41.8682 164.948 42.8102 169.804 42.0018C174.661 41.1935 179.072 38.6872 182.253 34.9297C185.434 31.1721 187.178 26.4072 187.174 21.4839C187.173 19.8185 186.975 18.1589 186.585 16.5397Z" fill="white"/>
</svg>
