<svg width="80" height="39" viewBox="0 0 80 39" fill="none" xmlns="http://www.w3.org/2000/svg">
<path d="M61.1392 6.02474C61.1499 6.14316 61.1607 6.24005 61.1607 6.33695C61.1607 11.0901 61.2576 15.8486 61.1176 20.5963C60.9831 25.3279 59.0183 29.2413 55.0403 31.9113C50.1418 35.1949 43.8276 34.2259 40.0058 29.715C37.6534 26.9374 36.4907 23.7131 36.4853 20.0796C36.4745 15.5095 36.4853 10.9394 36.4853 6.36924C36.4853 6.26159 36.5015 6.14854 36.5122 6.01935H44.0537V6.52535C44.0537 11.0093 44.0537 15.4987 44.0537 19.9827C44.0537 21.5922 44.4521 23.0886 45.4318 24.3805C46.3684 25.6186 47.558 26.3992 49.1944 26.2215C50.5025 26.0816 51.4553 25.3387 52.2196 24.3213C53.1993 23.024 53.6031 21.5384 53.5977 19.9235C53.5977 15.4664 53.5977 11.0093 53.5977 6.55226V6.01935C56.1169 6.01935 58.6038 6.01935 61.1392 6.01935V6.02474Z" fill="#F9FAFB"/>
<path d="M74.0727 33.0637H66.5743V6.02521H74.0727V33.0637Z" fill="#F9FAFB"/>
<g clip-path="url(#clip0_163_19481)">
<g clip-path="url(#clip1_163_19481)">
<path d="M9.5 0.953979H0V38.954H9.5V0.953979Z" fill="#60A5FA"/>
<path d="M32.4352 10.4457V10.4536L22.9352 19.9536L16.2179 26.6749L9.50064 19.9536L25.7219 3.73236L30.2463 8.25674L32.4352 10.4457Z" fill="#3B82F6"/>
<path d="M32.4352 29.4531L25.7179 36.1704L19.0006 29.4531L16.2179 26.6744L9.50064 19.9531L16.2179 13.2358L22.9352 19.9531L32.4352 29.4531Z" fill="#60A5FA"/>
<path d="M32.4346 10.4461V10.454H9.49999V10.4461L7.31103 8.2571L2.78665 3.73273L0.00790405 0.953979H22.9425L25.7212 3.73273L30.2456 8.2571L32.4346 10.4461Z" fill="#BFDBFE"/>
<path d="M32.4346 10.4461V10.454H9.49999V10.4461L7.31103 8.2571L2.78665 3.73273L0.00790405 0.953979H22.9425L25.7212 3.73273L30.2456 8.2571L32.4346 10.4461Z" fill="#2563EB"/>
<path d="M0.00790405 38.9458V38.9537H22.9425V38.9458L25.1314 36.7569L29.6558 32.2325L32.4346 29.4537H9.49999L6.72124 32.2325L2.19686 36.7569L0.00790405 38.9458Z" fill="#2563EB"/>
<path d="M16.2165 13.2354L9.50134 19.9553L16.2212 26.6704L22.9364 19.9506L16.2165 13.2354Z" fill="#35459B"/>
<path d="M16.2165 13.2354L9.50134 19.9553L16.2212 26.6704L22.9364 19.9506L16.2165 13.2354Z" fill="#93C5FD"/>
</g>
</g>
<defs>
<clipPath id="clip0_163_19481">
<rect width="32.4346" height="38" fill="white" transform="translate(0 0.953247)"/>
</clipPath>
<clipPath id="clip1_163_19481">
<rect width="32.4346" height="38" fill="white" transform="translate(0 0.953247)"/>
</clipPath>
</defs>
</svg>
